<?xml version="1.0" encoding="UTF-8" standalone="no"?>
<!-- Created with Inkscape (http://www.inkscape.org/) -->

<svg
   xmlns:osb="http://www.openswatchbook.org/uri/2009/osb"
   xmlns:dc="http://purl.org/dc/elements/1.1/"
   xmlns:cc="http://creativecommons.org/ns#"
   xmlns:rdf="http://www.w3.org/1999/02/22-rdf-syntax-ns#"
   xmlns:svg="http://www.w3.org/2000/svg"
   xmlns="http://www.w3.org/2000/svg"
   xmlns:sodipodi="http://sodipodi.sourceforge.net/DTD/sodipodi-0.dtd"
   xmlns:inkscape="http://www.inkscape.org/namespaces/inkscape"
   width="744.09448819"
   height="1052.3622047"
   id="svg2"
   version="1.1"
   inkscape:version="0.48.4 r9943 custom"
   sodipodi:docname="AVA_logo.svg">
  <sodipodi:namedview
     id="base"
     pagecolor="#ffffff"
     bordercolor="#666666"
     borderopacity="1.0"
     inkscape:pageopacity="0.0"
     inkscape:pageshadow="2"
     inkscape:zoom="0.61005613"
     inkscape:cx="372.04724"
     inkscape:cy="519.42961"
     inkscape:document-units="px"
     inkscape:current-layer="layer1"
     showgrid="false"
     inkscape:window-width="1096"
     inkscape:window-height="809"
     inkscape:window-x="67"
     inkscape:window-y="23"
     inkscape:window-maximized="0"
     showguides="true"
     inkscape:guide-bbox="true" />
  <defs
     id="defs4">
    <linearGradient
       id="linearGradient5706"
       osb:paint="solid">
      <stop
         style="stop-color:#000000;stop-opacity:1;"
         offset="0"
         id="stop5708" />
    </linearGradient>
    <linearGradient
       id="linearGradient4256"
       osb:paint="solid">
      <stop
         style="stop-color:#000000;stop-opacity:1;"
         offset="0"
         id="stop4258" />
    </linearGradient>
  </defs>
  <metadata
     id="metadata7">
    <rdf:RDF>
      <cc:Work
         rdf:about="">
        <dc:format>image/svg+xml</dc:format>
        <dc:type
           rdf:resource="http://purl.org/dc/dcmitype/StillImage" />
        <dc:title />
      </cc:Work>
    </rdf:RDF>
  </metadata>
  <g
     inkscape:groupmode="layer"
     id="layer2"
     inkscape:label="Layer background" />
  <g
     id="layer1"
     inkscape:groupmode="layer"
     inkscape:label="Layer 1">
    <rect
       style="fill:#009bd6;fill-opacity:1;stroke:none"
       id="rect3770"
       width="720"
       height="720"
       x="8.5714226"
       y="169.50507"
       ry="108.57143"
       inkscape:export-xdpi="90"
       inkscape:export-ydpi="90" />
    <path
       style="fill:none;stroke:#ffffff;stroke-width:40;stroke-linecap:round;stroke-linejoin:round;stroke-miterlimit:10;stroke-opacity:1;stroke-dasharray:none"
       d="m 170.95694,529.24991 c 127.40125,0 124.99744,0 124.99744,0"
       id="path4135-7"
       inkscape:connector-curvature="0" />
    <path
       style="fill:none;stroke:#ffffff;stroke-width:40;stroke-linecap:round;stroke-linejoin:round;stroke-miterlimit:10;stroke-opacity:1;stroke-dasharray:none"
       d="m 436.72005,529.24991 c 127.40126,0 124.99745,0 124.99745,0"
       id="path4135-7-1"
       inkscape:connector-curvature="0" />
    <path
       id="path4242"
       title="sin(x*1.1-pi/2)"
       d="m 89.635333,727.31662 c 0.18614,5.00982 0.37229,-4.15874 0.55843,0.84108 0.18615,4.99982 0.37229,-4.18343 0.55844,0.80638 0.18614,4.98982 0.37228,-4.20834 0.55842,0.77146 0.18615,4.97981 0.37229,-4.23328 0.55844,0.73645 0.18614,4.96973 0.37229,-4.25837 0.55842,0.70135 0.18615,4.95972 0.37229,-4.2837 0.55844,0.66603 0.18614,4.94971 0.37229,-4.30903 0.55842,0.63069 0.18615,4.93963 0.37229,-4.33451 0.55844,0.59512 0.18614,4.92963 0.37229,-4.35999 0.55843,0.55956 0.18614,4.91963 0.37228,-4.38564 0.55843,0.52391 0.18614,4.90954 0.37229,-4.41144 0.55843,0.48811 0.18615,4.89946 0.37228,-4.43732 0.55843,0.45214 0.18614,4.88954 0.37229,-4.4632 0.55843,0.41625 0.18615,4.87953 0.37229,-4.48916 0.55843,0.38029 0.18614,4.86945 0.37229,-4.51529 0.55843,0.34409 0.18615,4.85944 0.37229,-4.54141 0.55844,0.30803 0.18613,4.84938 0.37228,-4.56759 0.55842,0.27177 0.18615,4.83936 0.37229,-4.5938 0.55844,0.23556 0.18613,4.82928 0.372277,-4.62008 0.558417,0.19919 0.18615,4.81928 0.37229,-4.64636 0.55844,0.16291 0.18614,4.80928 0.37228,-4.67272 0.55842,0.12656 0.18615,4.79926 0.37229,-4.69908 0.55844,0.0902 0.18614,4.78918 0.37229,-4.72544 0.55842,0.054 0.18615,4.77918 0.37229,-4.7518 0.55844,0.0175 0.18614,4.7691 0.37229,-4.77815 0.55843,-0.0191 0.18614,4.75909 0.37228,-4.80459 0.55843,-0.0555 0.18614,4.74909 0.37229,-4.83095 0.55843,-0.0919 0.18615,4.73909 0.37228,-4.85723 0.55843,-0.12822 0.18614,4.72901 0.37229,-4.88359 0.55843,-0.16458 0.18615,4.71901 0.37228,-4.90986 0.55843,-0.20086 0.18614,4.70892 0.37229,-4.93614 0.55843,-0.23723 0.18615,4.699 0.37229,-4.96234 0.55843,-0.27342 0.18614,4.68891 0.37229,-4.98855 0.55843,-0.30963 0.18615,4.67891 0.37229,-5.01467 0.55844,-0.34584 0.18613,4.66891 0.37228,-5.0407 0.55842,-0.38188 0.18615,4.65883 0.37229,-5.06666 0.55844,-0.41784 0.18614,4.64874 0.37228,-5.09262 0.55842,-0.45388 0.18615,4.63874 0.37229,-5.11843 0.55844,-0.48969 0.18614,4.62873 0.37228,-5.14423 0.55842,-0.52558 0.18615,4.61873 0.37229,-5.16987 0.55844,-0.56115 0.18614,4.60865 0.37229,-5.19543 0.55842,-0.59679 0.18615,4.59865 0.37229,-5.22093 0.55844,-0.63228 0.18614,4.58856 0.37229,-5.24625 0.55842,-0.6677 0.18615,4.57857 0.37229,-5.27149 0.55844,-0.70294 0.18614,4.56856 0.37229,-5.29657 0.55843,-0.73802 0.18614,4.55847 0.37228,-5.3216 0.55843,-0.77313 0.18614,4.54855 0.37229,-5.34644 0.55843,-0.80797 0.18615,4.53854 0.37228,-5.37106 0.55843,-0.84267 0.18614,4.52846 0.37229,-5.39567 0.55843,-0.87729 0.18615,4.51846 0.37229,-5.42004 0.55843,-0.91166 0.18614,4.50837 0.37229,-5.44441 0.55843,-0.94605 0.18615,4.49838 0.37229,-5.46838 0.55844,-0.98009 0.18613,4.48829 0.37228,-5.49237 0.55842,-1.01408 0.18615,4.47837 0.37229,-5.51603 0.55844,-1.04774 0.18613,4.4682 0.37228,-5.53969 0.55842,-1.08141 0.18615,4.4582 0.37229,-5.56302 0.55844,-1.11483 0.18614,4.4482 0.37228,-5.58612 0.55842,-1.14793 0.18615,4.43819 0.37229,-5.60916 0.55844,-1.18096 0.18614,4.42811 0.37229,-5.63186 0.55842,-1.21375 0.18615,4.4181 0.37229,-5.65449 0.55844,-1.24638 0.18614,4.4081 0.37229,-5.67672 0.55843,-1.2787 0.18614,4.39802 0.37228,-5.69886 0.55843,-1.31085 0.18614,4.38802 0.37229,-5.72069 0.55843,-1.34276 0.18615,4.37801 0.37228,-5.74237 0.55843,-1.37436 0.18614,4.36793 0.37229,-5.76381 0.55843,-1.40588 0.18615,4.35792 0.37228,-5.78493 0.55843,-1.43709 0.18614,4.34793 0.37229,-5.8058 0.55843,-1.46796 0.18615,4.33784 0.37229,-5.82653 0.55843,-1.49869 0.18614,4.32784 0.37229,-5.84685 0.55843,-1.52901 0.18615,4.31775 0.37229,-5.86702 0.55844,-1.55927 0.18613,4.30775 0.37228,-5.88687 0.55842,-1.58912 0.18615,4.29775 0.37229,-5.90648 0.55844,-1.61873 0.18614,4.28774 0.37228,-5.92577 0.55842,-1.64803 0.18615,4.27766 0.37229,-5.94474 0.55844,-1.67709 0.18614,4.26767 0.37229,-5.96347 0.55842,-1.70582 0.18615,4.25765 0.37229,-5.98182 0.55844,-1.73425 0.18614,4.24758 0.37229,-6 0.55843,-1.76243 0.18614,4.23765 0.37228,-6.0177 0.55843,-1.79022 0.18614,4.22757 0.37229,-6.03525 0.55843,-1.81768 0.18615,4.21748 0.37228,-6.05248 0.55843,-1.845 0.18614,4.20747 0.37229,-6.06924 0.55843,-1.87184 0.18615,4.19747 0.37228,-6.08583 0.55843,-1.89835 0.18614,4.18739 0.37229,-6.10203 0.55843,-1.92464 0.18615,4.17739 0.37229,-6.11781 0.55843,-1.95051 0.18614,4.16739 0.37229,-6.1333 0.55843,-1.97599 0.18615,4.1573 0.37229,-6.14855 0.55844,-2.00124 0.18613,4.14729 0.37228,-6.1634 0.55842,-2.0261 0.18615,4.1373 0.37229,-6.17784 0.55844,-2.05055 0.18614,4.12721 0.37228,-6.19197 0.55842,-2.07476 0.18615,4.11721 0.37229,-6.20571 0.55844,-2.0985 0.18614,4.10721 0.37229,-6.21904 0.55842,-2.12192 0.18615,4.0972 0.37229,-6.23206 0.55844,-2.14495 0.18614,4.08712 0.37229,-6.24468 0.55842,-2.16757 0.18615,4.07712 0.37229,-6.25699 0.55844,-2.18988 0.18614,4.06704 0.37229,-6.2689 0.55843,-2.21187 0.18614,4.05704 0.37228,-6.28033 0.55843,-2.2333 0.18614,4.04702 0.37229,-6.29146 0.55843,-2.25443 0.18615,4.03694 0.37229,-6.30217 0.55844,-2.27523 0.18613,4.02694 0.37228,-6.31241 0.55842,-2.29547 0.18615,4.01686 0.37229,-6.32241 0.55844,-2.31548 0.18613,4.00685 0.37228,-6.33186 0.55842,-2.33501 0.18615,3.99685 0.37229,-6.34099 0.55844,-2.35414 0.18614,3.98684 0.37228,-6.34965 0.55842,-2.37281 0.18615,3.97677 0.37229,-6.3579 0.55844,-2.39113 0.18614,3.96676 0.37228,-6.36577 0.55842,-2.40901 0.18615,3.95668 0.37229,-6.37323 0.55844,-2.42647 0.18614,3.94668 0.37229,-6.38021 0.55842,-2.44353 0.18615,3.93666 0.37229,-6.38681 0.55844,-2.46014 0.18614,3.92667 0.37229,-6.39291 0.55843,-2.47632 0.18614,3.91666 0.37228,-6.39864 0.55843,-2.49205 0.18614,3.90658 0.37229,-6.40396 0.55843,-2.50737 0.18615,3.89658 0.37228,-6.4088 0.55843,-2.5223 0.18614,3.88658 0.37229,-6.41316 0.55843,-2.53667 0.18615,3.87649 0.37228,-6.41713 0.55843,-2.55064 0.18614,3.86641 0.37229,-6.4207 0.55843,-2.56429 0.18615,3.85648 0.37229,-6.42372 0.55843,-2.57732 0.18614,3.84641 0.37229,-6.42634 0.55843,-2.58994 0.18615,3.83632 0.37229,-6.42856 0.55844,-2.60224 0.18613,3.82639 0.37228,-6.43022 0.55842,-2.61392 0.18615,3.81632 0.37229,-6.43148 0.55844,-2.62519 0.18614,3.80631 0.37228,-6.43231 0.55842,-2.63604 0.18615,3.79628 0.37229,-6.43265 0.55844,-2.64641 0.18614,3.78623 0.37229,-6.43254 0.55842,-2.65632 0.18615,3.7762 0.37229,-6.43195 0.55844,-2.66577 0.18614,3.76617 0.37229,-6.43089 0.55842,-2.67475 0.18615,3.75616 0.37229,-6.42936 0.55844,-2.68324 0.18614,3.74611 0.37229,-6.42739 0.55843,-2.6913 0.18614,3.73608 0.37228,-6.42493 0.55843,-2.69887 0.18614,3.72606 0.37229,-6.422 0.55843,-2.70597 0.18615,3.71603 0.37228,-6.4186 0.55843,-2.7126 0.18614,3.706 0.37229,-6.41472 0.55843,-2.71875 0.18615,3.69596 0.37229,-6.41038 0.55843,-2.72444 0.18614,3.68594 0.37229,-6.40555 0.55843,-2.72965 0.18615,3.67592 0.37229,-6.40024 0.55844,-2.73436 0.18613,3.66588 0.37228,-6.39448 0.55842,-2.73862 0.18615,3.65585 0.37229,-6.38822 0.55844,-2.74239 0.18613,3.64581 0.37228,-6.38149 0.55842,-2.7457 0.18615,3.63579 0.37229,-6.37426 0.55844,-2.74851 0.18614,3.62577 0.37228,-6.36656 0.55842,-2.75083 0.18615,3.61573 0.37229,-6.3584 0.55844,-2.7527 0.18614,3.6057 0.37229,-6.34973 0.55842,-2.75407 0.18615,3.59567 0.3723,-6.3406 0.55844,-2.75496 0.18614,3.58565 0.37228,-6.33099 0.55843,-2.75538 0.18613,3.57561 0.37228,-6.32089 0.55842,-2.75531 0.18615,3.56559 0.37229,-6.3103 0.55844,-2.75475 0.18614,3.55555 0.37228,-6.29925 0.55842,-2.75373 0.18615,3.54553 0.37229,-6.2877 0.55844,-2.75221 0.18614,3.53549 0.37229,-6.27569 0.55842,-2.75023 0.18615,3.52546 0.37229,-6.26318 0.55844,-2.74775 0.18614,3.51543 0.37229,-6.25021 0.55843,-2.7448 0.18614,3.5054 0.37228,-6.23675 0.55843,-2.74137 0.18614,3.49536 0.37229,-6.22281 0.55843,-2.73747 0.18615,3.48535 0.37228,-6.20839 0.55843,-2.73307 0.18614,3.47531 0.37229,-6.1935 0.55843,-2.72821 0.18615,3.46529 0.37228,-6.17812 0.55843,-2.72287 0.18614,3.45526 0.37229,-6.16228 0.55843,-2.71705 0.18615,3.44522 0.37229,-6.14596 0.55843,-2.71077 0.18614,3.4352 0.37229,-6.12916 0.55843,-2.70399 0.18615,3.42516 0.37229,-6.1119 0.55844,-2.69677 0.18613,3.41513 0.37228,-6.09416 0.55842,-2.68906 0.18615,3.40512 0.37229,-6.07595 0.55844,-2.68088 0.18614,3.39508 0.37228,-6.05728 0.55842,-2.67224 0.18615,3.38505 0.37229,-6.03814 0.55844,-2.66311 0.18614,3.37501 0.37229,-6.01854 0.55842,-2.65355 0.18615,3.36498 0.37229,-5.99847 0.55844,-2.64352 0.18614,3.35496 0.37229,-5.97793 0.55842,-2.63301 0.18615,3.34492 0.37229,-5.95694 0.55844,-2.62205 0.18614,3.3349 0.37229,-5.9355 0.55843,-2.61064 0.18614,3.32487 0.37228,-5.91358 0.55843,-2.59875 0.18614,3.31483 0.37229,-5.89124 0.55843,-2.58644 0.18615,3.30482 0.37228,-5.86843 0.55843,-2.57365 0.18614,3.29478 0.37229,-5.84517 0.55843,-2.56042 0.18615,3.28475 0.37229,-5.82147 0.55843,-2.54675 0.18614,3.27472 0.37229,-5.79732 0.55843,-2.53263 0.18615,3.26469 0.37229,-5.77273 0.55844,-2.51806 0.18613,3.25465 0.37228,-5.7477 0.55842,-2.50307 0.18615,3.24463 0.37229,-5.72222 0.55844,-2.48763 0.18613,3.2346 0.37228,-5.69633 0.55842,-2.47175 0.18615,3.22456 0.37229,-5.67 0.55844,-2.45545 0.18614,3.21454 0.37228,-5.64323 0.55842,-2.43872 0.18615,3.20451 0.37229,-5.61604 0.55844,-2.42156 0.18614,3.19448 0.37229,-5.58842 0.55842,-2.40397 0.18615,3.18445 0.37229,-5.5604 0.55844,-2.38598 0.18614,3.17442 0.37229,-5.53194 0.55843,-2.36755 0.18614,3.16439 0.37228,-5.50309 0.55843,-2.34873 0.18614,3.15436 0.37229,-5.47381 0.55843,-2.32948 0.18615,3.14434 0.37228,-5.44414 0.55843,-2.30984 0.18614,3.1343 0.37229,-5.41405 0.55843,-2.28979 0.18615,3.12428 0.37228,-5.38357 0.55843,-2.26933 0.18614,3.11424 0.37229,-5.35269 0.55843,-2.24848 0.18615,3.10421 0.37229,-5.32143 0.55843,-2.22725 0.18614,3.09419 0.37229,-5.28976 0.55843,-2.20561 0.18615,3.08415 0.37229,-5.25773 0.55844,-2.18361 0.18613,3.07412 0.37228,-5.22529 0.55842,-2.1612 0.18615,3.0641 0.37229,-5.19251 0.55844,-2.13845 0.18614,3.05408 0.37228,-5.15931 0.55842,-2.11528 0.18615,3.04403 0.37229,-5.12578 0.55844,-2.09177 0.18614,3.03399 0.37229,-5.09188 0.55842,-2.0679 0.18615,3.02397 0.37229,-5.0576 0.55844,-2.04366 0.18614,3.01395 0.37229,-5.02297 0.55842,-2.01905 0.18615,3.00391 0.37229,-4.98799 0.55844,-1.99411 0.18614,2.99389 0.37229,-4.95266 0.55843,-1.9688 0.18614,2.98385 0.37228,-4.91699 0.55843,-1.94317 0.18614,2.97383 0.37229,-4.88097 0.55843,-1.91718 0.18615,2.96379 0.37228,-4.84463 0.55843,-1.89087 0.18614,2.95377 0.37229,-4.80796 0.55843,-1.86422 0.18615,2.94374 0.37229,-4.77095 0.55843,-1.83724 0.18614,2.9337 0.37229,-4.73364 0.55843,-1.80996 0.18615,2.92367 0.37229,-4.69599 0.55844,-1.78235 0.18613,2.91364 0.37228,-4.65804 0.55842,-1.75442 0.18615,2.90361 0.37229,-4.61979 0.55844,-1.7262 0.18613,2.89358 0.37228,-4.58124 0.55842,-1.69768 0.18615,2.88356 0.37229,-4.54238 0.55844,-1.66885 0.18614,2.87353 0.37228,-4.50323 0.55842,-1.63973 0.18615,2.86349 0.37229,-4.46381 0.55844,-1.61033 0.18614,2.85346 0.37229,-4.4241 0.55842,-1.58065 0.18615,2.84343 0.37229,-4.3841 0.55844,-1.5507 0.18614,2.83341 0.37229,-4.34384 0.55843,-1.52046 0.18614,2.82337 0.37228,-4.30332 0.55843,-1.48997 0.18614,2.81335 0.37229,-4.26252 0.55843,-1.45921 0.18615,2.80332 0.37228,-4.22149 0.55843,-1.4282 0.18614,2.79329 0.37229,-4.18021 0.55843,-1.39694 0.18615,2.78325 0.37228,-4.13867 0.55843,-1.36545 0.18614,2.77324 0.37229,-4.09689 0.55843,-1.33369 0.18615,2.76319 0.37229,-4.05489 0.55843,-1.30173 0.18614,2.75317 0.37229,-4.01266 0.55843,-1.26952 0.18615,2.74314 0.37229,-3.97021 0.55844,-1.2371 0.18613,2.7331 0.37228,-3.92754 0.55842,-1.20447 0.18615,2.72309 0.37229,-3.88466 0.55844,-1.17161 0.18614,2.71306 0.37228,-3.84158 0.55842,-1.13855 0.18615,2.70301 0.37229,-3.7983 0.55844,-1.10531 0.18614,2.69299 0.37229,-3.75483 0.55842,-1.07186 0.18615,2.68296 0.37229,-3.71116 0.55844,-1.03822 0.18614,2.67292 0.37229,-3.66732 0.55842,-1.00442 0.18615,2.6629 0.37229,-3.62329 0.55844,-0.97043 0.18614,2.65288 0.37229,-3.57909 0.55843,-0.93626 0.18614,2.64284 0.37228,-3.53476 0.55843,-0.90195 0.18614,2.63283 0.37229,-3.49023 0.55843,-0.86745 0.18615,2.62278 0.37228,-3.44559 0.55843,-0.83284 0.18614,2.61276 0.37229,-3.40078 0.55843,-0.79805 0.18615,2.60272 0.37229,-3.35583 0.55843,-0.76314 0.18614,2.59269 0.37229,-3.31075 0.55843,-0.72809 0.18615,2.58267 0.37229,-3.26555 0.55844,-0.69292 0.18613,2.57265 0.37228,-3.22021 0.55842,-0.65761 0.18615,2.5626 0.37229,-3.17478 0.55844,-0.62221 0.18613,2.55258 0.37228,-3.12923 0.55842,-0.58668 0.18615,2.54255 0.37229,-3.08357 0.55844,-0.55106 0.18614,2.53252 0.37228,-3.03783 0.55842,-0.51534 0.18615,2.52249 0.37229,-2.99199 0.55844,-0.47953 0.18614,2.51245 0.37229,-2.94607 0.55842,-0.44364 0.18615,2.50243 0.37229,-2.90006 0.55844,-0.40767 0.18614,2.4924 0.37229,-2.85399 0.55843,-0.37163 0.18614,2.48237 0.37228,-2.80786 0.55843,-0.33552 0.18614,2.47233 0.37229,-2.76166 0.55843,-0.29935 0.18615,2.4623 0.37228,-2.71542 0.55843,-0.26315 0.18614,2.45229 0.37229,-2.66911 0.55843,-0.22687 0.18615,2.44225 0.37228,-2.62279 0.55843,-0.19057 0.18614,2.43222 0.37229,-2.57643 0.55843,-0.15423 0.18615,2.42219 0.37229,-2.53003 0.55843,-0.11788 0.18614,2.41217 0.37229,-2.48361 0.55843,-0.0815 0.18615,2.40213 0.37229,-2.43719 0.55844,-0.0451 0.18613,2.39209 0.37228,-2.39075 0.55842,-0.009 0.18615,2.38206 0.37229,-2.34432 0.55844,0.0277 0.18614,2.37205 0.37228,-2.29787 0.55842,0.0641 0.18615,2.36201 0.37229,-2.25146 0.55844,0.10052 0.18614,2.35197 0.37229,-2.20507 0.55842,0.13688 0.18615,2.34196 0.37229,-2.15868 0.55844,0.17325 0.18614,2.33192 0.37229,-2.11233 0.55843,0.20955 0.18614,2.3219 0.37228,-2.06602 0.55843,0.24585 0.18614,2.31186 0.37229,-2.01975 0.55843,0.28208 0.18615,2.30183 0.37228,-1.97353 0.55843,0.31827 0.18614,2.2918 0.37229,-1.92736 0.55843,0.35441 0.18615,2.28177 0.37228,-1.88126 0.55843,0.39048 0.18614,2.27174 0.37229,-1.83523 0.55843,0.42648 0.18615,2.26171 0.37229,-1.78926 0.55843,0.46242 0.18614,2.25169 0.37229,-1.74339 0.55843,0.49826 0.18615,2.24166 0.37229,-1.69758 0.55844,0.53404 0.18613,2.23162 0.37228,-1.65189 0.55842,0.5697 0.18615,2.22159 0.37229,-1.6063 0.55844,0.60526 0.18614,2.21157 0.37228,-1.56079 0.55842,0.64075 0.18615,2.20153 0.37229,-1.51543 0.55844,0.67608 0.18614,2.1915 0.37229,-1.47015 0.55842,0.71132 0.18615,2.18148 0.37229,-1.42501 0.55844,0.74644 0.18614,2.17145 0.37229,-1.38 0.55842,0.78141 0.18615,2.16142 0.37229,-1.33513 0.55844,0.81626 0.18614,2.15138 0.37229,-1.2904 0.55843,0.85096 0.18614,2.14135 0.37228,-1.24582 0.55843,0.88551 0.18614,2.13132 0.37229,-1.20139 0.55843,0.91991 0.18615,2.12129 0.37228,-1.15712 0.55843,0.95415 0.18614,2.11126 0.37229,-1.11302 0.55843,0.98821 0.18615,2.10124 0.37229,-1.06908 0.55843,1.02212 0.18614,2.0912 0.37229,-1.02534 0.55843,1.05583 0.18615,2.08118 0.37229,-0.98177 0.55844,1.08938 0.18613,2.07114 0.37228,-0.93841 0.55842,1.12272 0.18615,2.06111 0.37229,-0.89522 0.55844,1.15586 0.18613,2.05109 0.37228,-0.85224 0.55842,1.18882 0.18615,2.04106 0.37229,-0.80947 0.55844,1.22155 0.18614,2.03103 0.37228,-0.76692 0.55842,1.25409 0.18615,2.02099 0.37229,-0.72459 0.55844,1.28638 0.18614,2.01097 0.37229,-0.68246 0.55842,1.31847 0.18615,2.00094 0.37229,-0.64058 0.55844,1.35033 0.18614,1.9909 0.37229,-0.59894 0.55843,1.38194 0.18614,1.98088 0.37228,-0.55753 0.55843,1.41333 0.18614,1.97084 0.37229,-0.51638 0.55843,1.44444 0.18615,1.96082 0.37228,-0.47547 0.55843,1.47533 0.18614,1.95078 0.37229,-0.43482 0.55843,1.50594 0.18615,1.94076 0.37228,-0.39442 0.55843,1.5363 0.18614,1.93073 0.37229,-0.35431 0.55843,1.56639 0.18615,1.9207 0.37229,-0.31447 0.55843,1.59621 0.18614,1.91067 0.37229,-0.2749 0.55843,1.62574 0.18615,1.90064 0.37229,-0.23562 0.55844,1.65499 0.18613,1.89061 0.37228,-0.19662 0.55842,1.68396 0.18615,1.88059 0.37229,-0.15792 0.55844,1.71263 0.18614,1.87054 0.37228,-0.11953 0.55842,1.741 0.18615,1.86052 0.37229,-0.0814 0.55844,1.76906 0.18614,1.85049 0.37229,-0.0437 0.55842,1.79682 0.18615,1.84047 0.37229,-0.006 0.55844,1.82427 0.18614,1.83043 0.37229,0.031 0.55842,1.8514 0.18615,1.8204 0.37229,0.0678 0.55844,1.87819 0.18614,1.81036 0.37229,0.10433 0.55843,1.90466 0.18614,1.80035 0.37228,0.1405 0.55843,1.93081 0.18614,1.79032 0.37229,0.17634 0.55843,1.95662 0.18615,1.78028 0.37228,0.21183 0.55843,1.98208 0.18614,1.77025 0.37229,0.24698 0.55843,2.00719 0.18615,1.76023 0.37229,0.28177 0.55843,2.03197 0.18614,1.75019 0.37229,0.3162 0.55843,2.05637 0.18615,1.74016 0.37229,0.35029 0.55844,2.08042 0.18613,1.73014 0.37228,0.38402 0.55842,2.10412 0.18615,1.72011 0.37229,0.41737 0.55844,2.12744 0.18613,1.71007 0.37228,0.45035 0.55842,2.15039 0.18615,1.70005 0.37229,0.48295 0.55844,2.17297 0.18614,1.69002 0.37228,0.51517 0.55842,2.19515 0.18615,1.68 0.37229,0.54703 0.55844,2.21698 0.18614,1.66996 0.37229,0.57848 0.55842,2.23841 0.18615,1.65992 0.37229,0.60954 0.55844,2.25944 0.18614,1.64989 0.37229,0.6402 0.55843,2.28006 0.18614,1.63987 0.37228,0.67049 0.55843,2.30033 0.18614,1.62983 0.37229,0.70035 0.55843,2.32016 0.18615,1.61981 0.37228,0.72981 0.55843,2.33959 0.18614,1.60978 0.37229,0.75887 0.55843,2.35863 0.18615,1.59974 0.37228,0.78752 0.55843,2.37723 0.18614,1.58972 0.37229,0.81576 0.55843,2.39545 0.18615,1.57968 0.37229,0.84356 0.55843,2.41321 0.18614,1.56966 0.37229,0.87096 0.55843,2.43059 0.18615,1.55963 0.37229,0.89792 0.55844,2.44751 0.18613,1.54961 0.37228,0.92446 0.55842,2.46403 0.18615,1.53957 0.37229,0.95057 0.55844,2.48011 0.18614,1.52955 0.37228,0.97625 0.55842,2.49576 0.18615,1.5195 0.37229,1.00148 0.55844,2.51096 0.18614,1.50948 0.37229,1.02629 0.55842,2.52574 0.18615,1.49945 0.37229,1.05065 0.55844,2.54007 0.18614,1.48942 0.37229,1.07456 0.55842,2.55395 0.18615,1.47939 0.37229,1.09804 0.55844,2.5674 0.18614,1.46936 0.37229,1.12106 0.55843,2.58039 0.18614,1.45933 0.37228,1.14363 0.55843,2.59294 0.18614,1.4493 0.37229,1.16575 0.55843,2.60502 0.18615,1.43928 0.37228,1.18741 0.55843,2.61666 0.18614,1.42924 0.37229,1.20862 0.55843,2.62784 0.18615,1.41922 0.37229,1.22937 0.55843,2.63855 0.18614,1.40918 0.37229,1.24967 0.55843,2.64883 0.18615,1.39914 0.37229,1.26949 0.55844,2.65861 0.18613,1.38912 0.37228,1.28886 0.55842,2.66795 0.18615,1.37909 0.37229,1.30775 0.55844,2.67681 0.18613,1.36907 0.37228,1.32619 0.55842,2.68522 0.18615,1.35902 0.37229,1.34413 0.55844,2.69314 0.18614,1.349 0.37228,1.36164 0.55842,2.70061 0.18615,1.33897 0.37229,1.37865 0.55844,2.70759 0.18614,1.32894 0.37229,1.39519 0.55842,2.7141 0.18615,1.31892 0.37229,1.41128 0.55844,2.72016 0.18614,1.30889 0.37229,1.42687 0.55843,2.72573 0.18614,1.29885 0.37228,1.44199 0.55843,2.73081 0.18614,1.28882 0.37229,1.45663 0.55843,2.73543 0.18615,1.27879 0.37228,1.4708 0.55843,2.73956 0.18614,1.26877 0.37229,1.48449 0.55843,2.74323 0.18615,1.25873 0.37228,1.4977 0.55843,2.7464 0.18614,1.24871 0.37229,1.51043 0.55843,2.74911 0.18615,1.23867 0.37229,1.52267 0.55843,2.75133 0.18614,1.22864 0.37229,1.53445 0.55843,2.75306 0.18615,1.21861 0.37229,1.54574 0.55844,2.75432 0.18613,1.20859 0.37228,1.55655 0.55842,2.75511 0.18615,1.19856 0.37229,1.56688 0.55844,2.75541 0.18614,1.18851 0.37228,1.57671 0.55842,2.75522 0.18615,1.17849 0.37229,1.58608 0.55844,2.75455 0.18614,1.16847 0.37229,1.59497 0.55842,2.75341 0.18615,1.15844 0.37229,1.60338 0.55844,2.75179 0.18614,1.1484 0.37229,1.6113 0.55842,2.74968 0.18615,1.13837 0.37229,1.61873 0.55844,2.74708 0.18614,1.12835 0.37229,1.62571 0.55843,2.74403 0.18614,1.11832 0.37228,1.63219 0.55843,2.74049 0.18614,1.10828 0.37229,1.63819 0.55843,2.73646 0.18615,1.09825 0.37228,1.64372 0.55843,2.73195 0.18614,1.08824 0.37229,1.64878 0.55843,2.72698 0.18615,1.0782 0.37229,1.65335 0.55843,2.72152 0.18614,1.06817 0.37229,1.65746 0.55843,2.7156 0.18615,1.05814 0.37229,1.66108 0.55844,2.70919 0.18613,1.04811 0.37228,1.66424 0.55842,2.70231 0.18615,1.03808 0.37229,1.66692 0.55844,2.69498 0.18614,1.02805 0.37228,1.66912 0.55842,2.68714 0.18615,1.01803 0.37229,1.67087 0.55844,2.67887 0.18614,1.00798 0.37229,1.67213 0.55842,2.6701 0.18615,0.99796 0.37229,1.67296 0.55844,2.66088 0.18614,0.98794 0.37229,1.6733 0.55842,2.6512 0.18615,0.9779 0.37229,1.67318 0.55844,2.64105 0.18614,0.96788 0.37229,1.67259 0.55843,2.63045 0.18614,0.9578 0.37228,1.67153 0.55843,2.6194 0.18614,0.94778 0.37229,1.67001 0.55843,2.6078 0.18615,0.93778 0.37228,1.66812 0.55843,2.59589 0.18614,0.9277 0.37229,1.66566 0.55843,2.58343 0.18615,0.9177 0.37229,1.66279 0.55843,2.57049 0.18614,0.90769 0.37229,1.65954 0.55843,2.55723 0.18615,0.89768 0.37229,1.65581 0.55844,2.54342 0.18613,0.8876 0.37228,1.65159 0.55842,2.52919 0.18615,0.87761 0.37229,1.64692 0.55844,2.51452 0.18613,0.8676 0.37228,1.64192 0.55842,2.49943 0.18615,0.85752 0.37229,1.63636 0.55844,2.48387 0.18614,0.84752 0.37228,1.6304 0.55842,2.46791 0.18615,0.83751 0.37229,1.62405 0.55844,2.45149 0.18614,0.82742 0.37229,1.61721 0.55842,2.43464 0.18615,0.81743 0.37229,1.61 0.55844,2.41742 0.18614,0.80742 0.37229,1.60238 0.55843,2.39971 0.18614,0.79734 0.37228,1.59428 0.55843,2.38162 0.18614,0.78733 0.37229,1.58578 0.55843,2.36311 0.18615,0.77734 0.37228,1.57689 0.55843,2.34414 0.18614,0.76733 0.37229,1.56761 0.55844,2.32485 0.18614,0.75725 0.37229,1.55791 0.55842,2.30508 0.18615,0.74724 0.37229,1.54775 0.55844,2.28499 0.18614,0.73716 0.37229,1.5372 0.55842,2.26435 0.18615,0.72715 0.37229,1.52632 0.55844,2.24347 0.18614,0.71716 0.37229,1.51504 0.55843,2.22211 0.18614,0.70715 0.37228,1.50338 0.55843,2.20045 0.18614,0.69706 0.37229,1.49122 0.55843,2.17828 0.18615,0.68699 0.37228,1.47877 0.55843,2.15583 0.18614,0.67697 0.37229,1.4659 0.55843,2.13295 0.18615,0.66698 0.37229,1.45272 0.55843,2.10969 0.18614,0.65697 0.37229,1.43915 0.55843,2.08612 0.18615,0.64689 0.37229,1.42525 0.55844,2.06214 0.18613,0.63688 0.37228,1.41096 0.55842,2.03784 0.18615,0.6268 0.37229,1.39627 0.55844,2.01307 0.18613,0.61688 0.37228,1.38135 0.55842,1.98815 0.18615,0.6068 0.37229,1.36594 0.55844,1.96274 0.18614,0.59671 0.37228,1.35022 0.55842,1.93693 0.18615,0.58679 0.37229,1.33427 0.55844,1.91098 0.18614,0.57671 0.37229,1.31783 0.55842,1.88454 0.18615,0.5667 0.37229,1.30116 0.55844,1.85778 0.18614,0.5567 0.37229,1.28417 0.55843,1.83079 0.18614,0.54662 0.37228,1.26678 0.55843,1.80339 0.18614,0.53662 0.37229,1.24916 0.55843,1.77569 0.18615,0.52661 0.37228,1.23122 0.55843,1.74775 0.18614,0.51653 0.37229,1.21296 0.55843,1.7194 0.18615,0.50652 0.37228,1.19438 0.55843,1.69082 0.18614,0.49652 0.37229,1.17549 0.55843,1.66192 0.18615,0.48652 0.37229,1.15635 0.55843,1.63278 0.18614,0.47644 0.37229,1.1369 0.55843,1.60325 0.18615,0.46644 0.37229,1.11721 0.55844,1.57356 0.18613,0.45635 0.37228,1.0972 0.55842,1.54347 0.18615,0.44634 0.37229,1.07696 0.55844,1.51322 0.18614,0.43634 0.37228,1.0564 0.55842,1.48266 0.18615,0.42625 0.37229,1.03559 0.55844,1.45184 0.18614,0.41626 0.37229,1.01455 0.55842,1.42081 0.18615,0.40617 0.37229,0.99327 0.55844,1.38945 0.18614,0.39616 0.37229,0.97167 0.55842,1.35784 0.18615,0.38617 0.37229,0.95001 0.55844,1.32609 0.18614,0.37617 0.37229,0.92802 0.55843,1.2941 0.18614,0.36608 0.37228,0.90571 0.55843,1.26178 0.18614,0.35608 0.37229,0.88332 0.55843,1.22932 0.18615,0.34607 0.37228,0.86068 0.55843,1.19668 0.18614,0.33599 0.37229,0.83775 0.55843,1.16373 0.18615,0.32598 0.37229,0.81472 0.55843,1.13062 0.18614,0.31599 0.37229,0.79147 0.55843,1.09737 0.18615,0.3059 0.37229,0.76796 0.55844,1.06386 0.18613,0.29589 0.37228,0.7443 0.55842,1.03019 0.18615,0.28581 0.37229,0.72049 0.55844,0.9963 0.18613,0.27581 0.37228,0.69651 0.55842,0.96231 0.18615,0.26581 0.37229,0.67229 0.55844,0.9281 0.18614,0.25572 0.37228,0.648 0.55842,0.89372 0.18615,0.24572 0.37229,0.62347 0.55844,0.85918 0.18614,0.23572 0.37229,0.59894 0.55842,0.82457 0.18615,0.22563 0.37229,0.57409 0.55844,0.78972 0.18614,0.21563 0.37229,0.54923 0.55843,0.75478 0.18614,0.20563 0.37228,0.52415 0.55843,0.71977 0.18614,0.19555 0.37229,0.49891 0.55843,0.68445 0.18615,0.18554 0.37228,0.47365 0.55843,0.64919 0.18614,0.17553 0.37229,0.44825 0.55843,0.61378 0.18615,0.16545 0.37228,0.42269 0.55843,0.57814 0.18614,0.15552 0.37229,0.39712 0.55843,0.54256 0.18615,0.14545 0.37229,0.3714 0.55843,0.50685 0.18614,0.13536 0.37229,0.34559 0.55843,0.47095 0.18615,0.12536 0.37229,0.31971 0.55844,0.43507 0.18613,0.11535 0.37228,0.29375 0.55842,0.3991 0.18615,0.10528 0.37229,0.26771 0.55844,0.36299 0.18614,0.0953 0.37228,0.24167 0.55842,0.32694 0.18615,0.0852 0.37229,0.21547 0.55844,0.29065 0.18614,0.0754 0.37229,0.18935 0.55842,0.25454 0.18615,0.0651 0.37229,0.16306 0.55844,0.21816 0.18614,0.0555 0.37229,0.13679 0.55842,0.18197 0.18615,0.0452 0.37229,0.11043 0.55844,0.14552 0.18614,0.0349 0.37229,0.0842 0.55843,0.10925 0.18614,0.0254 0.37228,0.0579 0.55843,0.073 0.18614,0.0151 0.37229,0.0318 0.55843,0.0366 0.18615,0.008 0.37228,0.008 0.55843,0 0.18614,-0.008 0.37229,-0.0215 0.55843,-0.0366 0.18615,-0.0151 0.37229,-0.0476 0.55843,-0.073 0.18614,-0.0254 0.37229,-0.0739 0.55843,-0.10925 0.18615,-0.0349 0.37229,-0.10042 0.55844,-0.14552 0.18613,-0.0452 0.37228,-0.12679 0.55842,-0.18197 0.18615,-0.0555 0.37229,-0.15299 0.55844,-0.21816 0.18613,-0.0651 0.37228,-0.17927 0.55842,-0.25454 0.18615,-0.0754 0.37229,-0.20547 0.55844,-0.29065 0.18614,-0.0853 0.37228,-0.23167 0.55842,-0.32694 0.18615,-0.0953 0.37229,-0.25771 0.55844,-0.36299 0.18614,-0.10535 0.37229,-0.28375 0.55842,-0.3991 0.18615,-0.11536 0.37229,-0.30971 0.55844,-0.43507 0.18614,-0.12536 0.37229,-0.33559 0.55843,-0.47095 0.18614,-0.13545 0.37228,-0.3614 0.55843,-0.50685 0.18614,-0.14544 0.37229,-0.38704 0.55843,-0.54256 0.18615,-0.15545 0.37228,-0.41269 0.55843,-0.57814 0.18614,-0.16553 0.37229,-0.43825 0.55843,-0.61378 0.18615,-0.17554 0.37229,-0.46365 0.55843,-0.64919 0.18614,-0.18554 0.37229,-0.4889 0.55843,-0.68445 0.18615,-0.19562 0.37229,-0.51414 0.55844,-0.71977 0.18613,-0.20555 0.37228,-0.53915 0.55842,-0.75478 0.18615,-0.21563 0.37229,-0.56409 0.55844,-0.78972 0.18613,-0.22563 0.37228,-0.58885 0.55842,-0.82457 0.18615,-0.23571 0.37229,-0.61346 0.55844,-0.85918 0.18614,-0.24572 0.37228,-0.638 0.55842,-0.89372 0.18615,-0.25581 0.37229,-0.66229 0.55844,-0.9281 0.18614,-0.2658 0.37229,-0.6865 0.55842,-0.96231 0.18615,-0.27581 0.37229,-0.71049 0.55844,-0.9963 0.18614,-0.28589 0.37229,-0.7343 0.55843,-1.03019 0.18614,-0.2959 0.37228,-0.75796 0.55843,-1.06386 0.18614,-0.3059 0.37229,-0.78138 0.55843,-1.09737 0.18615,-0.3159 0.37228,-0.80464 0.55843,-1.13062 0.18614,-0.32598 0.37229,-0.82774 0.55843,-1.16373 0.18615,-0.336 0.37228,-0.85061 0.55843,-1.19668 0.18614,-0.346 0.37229,-0.87324 0.55843,-1.22932 0.18615,-0.35607 0.37229,-0.8957 0.55843,-1.26178 0.18614,-0.36608 0.37229,-0.91793 0.55843,-1.2941 0.18615,-0.37608 0.37229,-0.93992 0.55844,-1.32609 0.18613,-0.38617 0.37228,-0.96168 0.55842,-1.35784 0.18615,-0.39618 0.37229,-0.98328 0.55844,-1.38945 0.18614,-0.40626 0.37228,-1.00455 0.55842,-1.42081 0.18615,-0.41625 0.37229,-1.02559 0.55844,-1.45184 0.18614,-0.42626 0.37229,-1.04632 0.55842,-1.48266 0.18615,-0.43626 0.37229,-1.06688 0.55844,-1.51322 0.18614,-0.44627 0.37229,-1.08712 0.55842,-1.54347 0.18615,-0.45635 0.37229,-1.10712 0.55844,-1.57356 0.18614,-0.46635 0.37229,-1.12681 0.55843,-1.60325 0.18614,-0.47643 0.37228,-1.14626 0.55843,-1.63278 0.18614,-0.48643 0.37229,-1.1654 0.55843,-1.66192 0.18615,-0.49644 0.37228,-1.1843 0.55843,-1.69082 0.18614,-0.50644 0.37229,-1.20287 0.55843,-1.7194 0.18615,-0.51653 0.37229,-1.22114 0.55843,-1.74775 0.18614,-0.52653 0.37229,-1.23907 0.55843,-1.77569 0.18615,-0.53661 0.37229,-1.25677 0.55844,-1.80339 0.18613,-0.54662 0.37228,-1.27409 0.55842,-1.83079 0.18615,-0.55662 0.37229,-1.29108 0.55844,-1.85778 0.18613,-0.56671 0.37228,-1.30783 0.55842,-1.88454 0.18615,-0.57671 0.37229,-1.32419 0.55844,-1.91098 0.18614,-0.58671 0.37228,-1.34022 0.55842,-1.93693 0.18615,-0.5968 0.37229,-1.35594 0.55844,-1.96274 0.18614,-0.6068 0.37229,-1.37127 0.55842,-1.98815 0.18615,-0.6168 0.37229,-1.38627 0.55844,-2.01307 0.18614,-0.62688 0.37229,-1.40096 0.55843,-2.03784 0.18614,-0.63689 0.37228,-1.41525 0.55843,-2.06214 0.18614,-0.64697 0.37229,-1.42915 0.55843,-2.08612 0.18615,-0.65697 0.37228,-1.44271 0.55843,-2.10969 0.18614,-0.66705 0.37229,-1.45598 0.55843,-2.13295 0.18615,-0.67706 0.37228,-1.46884 0.55843,-2.15583 0.18614,-0.68706 0.37229,-1.48122 0.55843,-2.17828 0.18615,-0.69707 0.37229,-1.4933 0.55843,-2.20045 0.18614,-0.70707 0.37229,-1.50495 0.55843,-2.22211 0.18615,-0.71715 0.37229,-1.51632 0.55844,-2.24347 0.18613,-0.72715 0.37228,-1.52719 0.55842,-2.26435 0.18615,-0.73724 0.37229,-1.53775 0.55844,-2.28499 0.18614,-0.74717 0.37228,-1.54783 0.55842,-2.30508 0.18615,-0.75724 0.37229,-1.55752 0.55844,-2.32485 0.18614,-0.76725 0.37229,-1.5668 0.55842,-2.34414 0.18615,-0.77733 0.37229,-1.57578 0.55844,-2.36311 0.18614,-0.78734 0.37229,-1.58428 0.55842,-2.38162 0.18615,-0.79733 0.37229,-1.59229 0.55844,-2.39971 0.18614,-0.80742 0.37229,-1.59999 0.55843,-2.41742 0.18614,-0.81743 0.37228,-1.60722 0.55843,-2.43464 0.18614,-0.82744 0.37229,-1.61398 0.55843,-2.45149 0.18615,-0.83751 0.37228,-1.62039 0.55843,-2.46791 0.18614,-0.84751 0.37229,-1.62635 0.55843,-2.48387 0.18615,-0.85751 0.37229,-1.63183 0.55843,-2.49943 0.18614,-0.8676 0.37229,-1.63691 0.55843,-2.51452 0.18615,-0.8776 0.37229,-1.64159 0.55844,-2.52919 0.18613,-0.88761 0.37228,-1.64574 0.55842,-2.54342 0.18615,-0.89769 0.37229,-1.64954 0.55844,-2.55723 0.18613,-0.9077 0.37228,-1.65279 0.55842,-2.57049 0.18615,-0.91777 0.37229,-1.65573 0.55844,-2.58343 0.18614,-0.92777 0.37228,-1.65811 0.55842,-2.59589 0.18615,-0.93779 0.37229,-1.66002 0.55844,-2.6078 0.18614,-0.94787 0.37229,-1.6616 0.55842,-2.6194 0.18615,-0.95786 0.37229,-1.66257 0.55844,-2.63045 0.18614,-0.96787 0.37229,-1.66315 0.55843,-2.64105 0.18614,-0.9779 0.37228,-1.66326 0.55843,-2.6512 0.18614,-0.98792 0.37229,-1.66292 0.55843,-2.66088 0.18615,-0.99797 0.37228,-1.66212 0.55843,-2.6701 0.18614,-1.008 0.37229,-1.66084 0.55843,-2.67887 0.18615,-1.01802 0.37228,-1.65909 0.55843,-2.68714 0.18614,-1.02806 0.37229,-1.6569 0.55843,-2.69498 0.18615,-1.03807 0.37229,-1.6542 0.55843,-2.70231 0.18614,-1.04811 0.37229,-1.65105 0.55843,-2.70919 0.18615,-1.05814 0.37229,-1.64743 0.55844,-2.7156 0.18613,-1.06817 0.37228,-1.64332 0.55842,-2.72152 0.18615,-1.0782 0.37229,-1.63874 0.55844,-2.72698 0.18614,-1.08823 0.37228,-1.6337 0.55842,-2.73195 0.18615,-1.09827 0.37229,-1.62818 0.55844,-2.73646 0.18614,-1.1083 0.37229,-1.62217 0.55842,-2.74049 0.18615,-1.11832 0.37229,-1.61568 0.55844,-2.74403 0.18614,-1.12835 0.37229,-1.60871 0.55842,-2.74708 0.18615,-1.13838 0.37229,-1.60128 0.55844,-2.74968 0.18614,-1.14841 0.37229,-1.59335 0.55843,-2.75179 0.18614,-1.15844 0.37228,-1.58494 0.55843,-2.75341 0.18614,-1.16847 0.37229,-1.57606 0.55843,-2.75455 0.18615,-1.17851 0.37228,-1.56671 0.55843,-2.75522 0.18614,-1.18853 0.37229,-1.55685 0.55843,-2.75541 0.18615,-1.19856 0.37229,-1.54652 0.55843,-2.75511 0.18614,-1.20858 0.37229,-1.53571 0.55843,-2.75432 0.18615,-1.21861 0.37229,-1.52442 0.55844,-2.75306 0.18613,-1.22866 0.37228,-1.51266 0.55842,-2.75133 0.18615,-1.23868 0.37229,-1.5004 0.55844,-2.74911 0.18613,-1.2487 0.37228,-1.48767 0.55842,-2.7464 0.18615,-1.25874 0.37229,-1.47446 0.55844,-2.74323 0.18614,-1.26876 0.37228,-1.46077 0.55842,-2.73956 0.18615,-1.2788 0.37229,-1.44661 0.55844,-2.73543 0.18614,-1.28882 0.37229,-1.43196 0.55842,-2.73081 0.18615,-1.29886 0.37229,-1.41684 0.55844,-2.72573 0.18614,-1.30888 0.37229,-1.40124 0.55843,-2.72016 0.18614,-1.31891 0.37228,-1.38516 0.55843,-2.7141 0.18614,-1.32894 0.37229,-1.36862 0.55843,-2.70759 0.18615,-1.33897 0.37228,-1.35161 0.55843,-2.70061 0.18614,-1.34901 0.37229,-1.33412 0.55843,-2.69314 0.18615,-1.35903 0.37228,-1.31615 0.55843,-2.68522 0.18614,-1.36906 0.37229,-1.29772 0.55843,-2.67681 0.18615,-1.37909 0.37229,-1.27883 0.55844,-2.66795 0.18613,-1.38912 0.37228,-1.25947 0.55842,-2.65861 0.18615,-1.39916 0.37229,-1.23965 0.55844,-2.64883 0.18613,-1.40918 0.37228,-1.21933 0.55842,-2.63855 0.18615,-1.41922 0.37229,-1.1986 0.55844,-2.62784 0.18614,-1.42925 0.37228,-1.17738 0.55842,-2.61666 0.18615,-1.43927 0.37229,-1.15572 0.55844,-2.60502 0.18614,-1.44931 0.37229,-1.13361 0.55842,-2.59294 0.18615,-1.45933 0.37229,-1.11103 0.55844,-2.58039 0.18614,-1.46936 0.37229,-1.08801 0.55843,-2.5674 0.18614,-1.47939 0.37228,-1.06453 0.55843,-2.55395 0.18614,-1.48942 0.37229,-1.04062 0.55843,-2.54007 0.18615,-1.49945 0.37228,-1.01626 0.55843,-2.52574 0.18614,-1.50948 0.37229,-0.99146 0.55843,-2.51096 0.18615,-1.51951 0.37228,-0.96621 0.55843,-2.49576 0.18614,-1.52954 0.37229,-0.94054 0.55843,-2.48011 0.18615,-1.53957 0.37229,-0.91442 0.55843,-2.46403 0.18614,-1.54959 0.37229,-0.88788 0.55843,-2.44751 0.18615,-1.55963 0.37229,-0.86093 0.55844,-2.43059 0.18613,-1.56965 0.37228,-0.83353 0.55842,-2.41321 0.18615,-1.57969 0.37229,-0.80573 0.55844,-2.39545 0.18614,-1.58971 0.37228,-0.77749 0.55842,-2.37723 0.18615,-1.59976 0.37229,-0.74885 0.55844,-2.35863 0.18614,-1.60978 0.37229,-0.71978 0.55842,-2.33959 0.18615,-1.61981 0.37229,-0.69033 0.55844,-2.32016 0.18614,-1.62984 0.37229,-0.66046 0.55842,-2.30033 0.18615,-1.63986 0.37229,-0.63017 0.55844,-2.28006 0.18614,-1.6499 0.37229,-0.59952 0.55843,-2.25944 0.18614,-1.65993 0.37228,-0.56845 0.55843,-2.23841 0.18614,-1.66995 0.37229,-0.53698 0.55843,-2.21698 0.18615,-1.67998 0.37228,-0.50513 0.55843,-2.19515 0.18614,-1.69002 0.37229,-0.47292 0.55843,-2.17297 0.18615,-1.70004 0.37229,-0.44032 0.55843,-2.15039 0.18614,-1.71007 0.37229,-0.40733 0.55843,-2.12744 0.18615,-1.7201 0.37229,-0.37398 0.55844,-2.10412 0.18613,-1.73013 0.37228,-0.34026 0.55842,-2.08042 0.18615,-1.74017 0.37229,-0.30618 0.55844,-2.05637 0.18613,-1.7502 0.37228,-0.27174 0.55842,-2.03197 0.18615,-1.76021 0.37229,-0.23694 0.55844,-2.00719 0.18614,-1.77025 0.37228,-0.2018 0.55842,-1.98208 0.18615,-1.78028 0.37229,-0.1663 0.55844,-1.95662 0.18614,-1.79031 0.37229,-0.13046 0.55842,-1.93081 0.18615,-1.80033 0.37229,-0.0943 0.55844,-1.90466 0.18614,-1.81037 0.37229,-0.0578 0.55843,-1.87819 0.18614,-1.82042 0.37228,-0.0209 0.55843,-1.8514 0.18614,-1.83043 0.37229,0.0162 0.55843,-1.82427 0.18615,-1.84046 0.37228,0.0537 0.55843,-1.79682 0.18614,-1.85049 0.37229,0.0915 0.55843,-1.76906 0.18615,-1.86053 0.37228,0.12954 0.55843,-1.741 0.18614,-1.87055 0.37229,0.16796 0.55843,-1.71263 0.18615,-1.88058 0.37229,0.20665 0.55843,-1.68396 0.18614,-1.89061 0.37229,0.24565 0.55843,-1.65499 0.18615,-1.90064 0.37229,0.28493 0.55844,-1.62574 0.18613,-1.91068 0.37228,0.32449 0.55842,-1.59621 0.18615,-1.9207 0.37229,0.36434 0.55844,-1.56639 0.18614,-1.93072 0.37228,0.40446 0.55842,-1.5363 0.18615,-1.94076 0.37229,0.44484 0.55844,-1.50594 0.18614,-1.9508 0.37229,0.48549 0.55842,-1.47533 0.18615,-1.96082 0.37229,0.5264 0.55844,-1.44444 0.18614,-1.97086 0.37229,0.56755 0.55842,-1.41333 0.18615,-1.98088 0.37229,0.60896 0.55844,-1.38194 0.18614,-1.99091 0.37229,0.65061 0.55843,-1.35033 0.18614,-2.00093 0.37228,0.6925 0.55843,-1.31847 0.18614,-2.01097 0.37229,0.73461 0.55843,-1.28638 0.18615,-2.02101 0.37228,0.77694 0.55843,-1.25409 0.18614,-2.03102 0.37229,0.81951 0.55843,-1.22155 0.18615,-2.04106 0.37229,0.86227 0.55843,-1.18882 0.18614,-2.05108 0.37229,0.90525 0.55843,-1.15586 0.18615,-2.06113 0.37229,0.94842 0.55844,-1.12272 0.18613,-2.07115 0.37228,0.9918 0.55843,-1.08938 0.18614,-2.08117 0.37229,1.03537 0.55843,-1.05583 0.18615,-2.0912 0.37228,1.07912 0.55843,-1.02212 0.18614,-2.10123 0.37229,1.12305 0.55843,-0.98821 0.18615,-2.11127 0.37228,1.16714 0.55843,-0.95415 0.18614,-2.1213 0.37229,1.21141 0.55843,-0.91991 0.18615,-2.13133 0.37229,1.25584 0.55843,-0.88551 0.18614,-2.14136 0.37229,1.30042 0.55843,-0.85096 0.18615,-2.15139 0.37229,1.34516 0.55844,-0.81626 0.18613,-2.16141 0.37228,1.39004 0.55842,-0.78141 0.18615,-2.17145 0.37229,1.43504 0.55844,-0.74644 0.18614,-2.18147 0.37228,1.48018 0.55842,-0.71132 0.18615,-2.19151 0.37229,1.52545 0.55844,-0.67608 0.18614,-2.20154 0.37229,1.57082 0.55842,-0.64075 0.18615,-2.21156 0.37229,1.61633 0.55844,-0.60526 0.18614,-2.22159 0.37229,1.66192 0.55842,-0.5697 0.18615,-2.23162 0.37229,1.70762 0.55844,-0.53404 0.18614,-2.24165 0.37229,1.75343 0.55843,-0.49826 0.18614,-2.25168 0.37228,1.79929 0.55843,-0.46242 0.18614,-2.26171 0.37229,1.84526 0.55843,-0.42648 0.18615,-2.27174 0.37228,1.89129 0.55843,-0.39048 0.18614,-2.28177 0.37229,1.93739 0.55843,-0.35441 0.18615,-2.2918 0.37229,1.98356 0.55843,-0.31827 0.18614,-2.30183 0.37229,2.02978 0.55843,-0.28208 0.18615,-2.31187 0.37229,2.07605 0.55844,-0.24585 0.18613,-2.32188 0.37228,2.12237 0.55842,-0.20955 0.18615,-2.33193 0.37229,2.16871 0.55844,-0.17325 0.18613,-2.34195 0.37228,2.21509 0.55842,-0.13688 0.18615,-2.35198 0.37229,2.26149 0.55844,-0.10052 0.18614,-2.36201 0.37228,2.30792 0.55842,-0.0641 0.18615,-2.37203 0.37229,2.35435 0.55844,-0.0277 0.18614,-2.38208 0.37229,2.40077 0.55842,0.009 0.18615,-2.3921 0.37229,2.44722 0.55844,0.0451 0.18614,-2.40212 0.37229,2.49366 0.55843,0.0815 0.18614,-2.41215 0.37228,2.54007 0.55843,0.11788 0.18614,-2.4222 0.37229,2.58645 0.55843,0.15423 0.18615,-2.43222 0.37228,2.63282 0.55843,0.19057 0.18614,-2.44224 0.37229,2.67916 0.55843,0.22687 0.18615,-2.45227 0.37228,2.72545 0.55843,0.26315 0.18614,-2.46231 0.37229,2.77168 0.55843,0.29935 0.18615,-2.47234 0.37229,2.81789 0.55843,0.33552 0.18614,-2.48236 0.37229,2.86403 0.55843,0.37163 0.18615,-2.49239 0.37229,2.9101 0.55844,0.40767 0.18613,-2.50243 0.37228,2.95609 0.55842,0.44364 0.18615,-2.51246 0.37229,3.00202 0.55844,0.47953 0.18614,-2.52249 0.37228,3.04786 0.55842,0.51534 0.18615,-2.53251 0.37229,3.09361 0.55844,0.55106 0.18614,-2.54255 0.37229,3.13926 0.55842,0.58668 0.18615,-2.55257 0.37229,3.18481 0.55844,0.62221 0.18614,-2.5626 0.37229,3.23026 0.55842,0.65761 0.18615,-2.57263 0.37229,3.27559 0.55844,0.69292 0.18614,-2.58266 0.37229,3.32078 0.55843,0.72809 0.18615,-2.59269 0.37228,3.36586 0.55843,0.76314 0.18614,-2.60273 0.37229,3.41081 0.55843,0.79805 0.18615,-2.61275 0.37228,3.45562 0.55843,0.83284 0.18614,-2.62278 0.37229,3.50028 0.55843,0.86745 0.18615,-2.63281 0.37229,3.54479 0.55843,0.90195 0.18614,-2.64283 0.37229,3.58914 0.55843,0.93626 0.18615,-2.65286 0.37229,3.63333 0.55844,0.97043 0.18613,-2.6629 0.37228,3.67734 0.55842,1.00442 0.18615,-2.67294 0.37229,3.72118 0.55844,1.03822 0.18614,-2.68297 0.37228,3.76485 0.55842,1.07186 0.18615,-2.69299 0.37229,3.80832 0.55844,1.10531 0.18614,-2.70303 0.37229,3.85161 0.55842,1.13855 0.18615,-2.71305 0.37229,3.8947 0.55844,1.17161 0.18614,-2.72307 0.37229,3.93757 0.55842,1.20447 0.18615,-2.73311 0.37229,3.98024 0.55844,1.2371 0.18614,-2.74314 0.37229,4.02269 0.55843,1.26952 0.18614,-2.75316 0.37228,4.06492 0.55843,1.30173 0.18614,-2.7632 0.37229,4.10693 0.55843,1.33369 0.18615,-2.77322 0.37228,4.1487 0.55843,1.36545 0.18614,-2.78327 0.37229,4.19023 0.55843,1.39694 0.18615,-2.79329 0.37229,4.23152 0.55843,1.4282 0.18614,-2.80331 0.37229,4.27256 0.55843,1.45921 0.18615,-2.81335 0.37229,4.31334 0.55844,1.48997 0.18613,-2.82338 0.37228,4.35387 0.55842,1.52046 0.18615,-2.8334 0.37229,4.39413 0.55844,1.5507 0.18613,-2.84345 0.37228,4.43411 0.55842,1.58065 0.18615,-2.85348 0.37229,4.47382 0.55844,1.61033 0.18614,-2.8635 0.37228,4.51326 0.55842,1.63973 0.18615,-2.87353 0.37229,4.55241 0.55844,1.66885 0.18614,-2.88356 0.37229,4.59126 0.55842,1.69768 0.18615,-2.89359 0.37229,4.62981 0.55844,1.7262 0.18614,-2.90362 0.37229,4.66806 0.55843,1.75442 0.18614,-2.91364 0.37228,4.70602 0.55843,1.78235 0.18614,-2.92368 0.37229,4.74366 0.55843,1.80996 0.18615,-2.93371 0.37228,4.78098 0.55843,1.83724 0.18614,-2.94374 0.37229,4.81799 0.55843,1.86422 0.18615,-2.95376 0.37228,4.85466 0.55843,1.89087 0.18614,-2.96379 0.37229,4.89101 0.55843,1.91718 0.18615,-2.97382 0.37229,4.92702 0.55843,1.94317 0.18614,-2.98386 0.37229,4.96269 0.55843,1.9688 0.18615,-2.99388 0.37229,4.99802 0.55844,1.99411 0.18613,-3.00392 0.37228,5.033 0.55842,2.01905 0.18615,-3.01394 0.37229,5.06763 0.55844,2.04366 0.18614,-3.02398 0.37228,5.10189 0.55842,2.0679 0.18615,-3.03401 0.37229,5.1358 0.55844,2.09177 0.18614,-3.04403 0.37229,5.16936 0.55842,2.11528 0.18615,-3.05406 0.37229,5.20255 0.55844,2.13845 0.18614,-3.06409 0.37229,5.23532 0.55842,2.1612 0.18615,-3.07412 0.37229,5.26776 0.55844,2.18361 0.18614,-3.08415 0.37229,5.2998 0.55843,2.20561 0.18614,-3.09418 0.37228,5.33146 0.55843,2.22725 0.18614,-3.10421 0.37229,5.36272 0.55843,2.24848 0.18615,-3.11424 0.37228,5.39361 0.55843,2.26933 0.18614,-3.12426 0.37229,5.42409 0.55843,2.28979 0.18615,-3.1343 0.37229,5.45418 0.55843,2.30984 0.18614,-3.14433 0.37229,5.48384 0.55843,2.32948 0.18615,-3.15436 0.37229,5.51312 0.55844,2.34873 0.18613,-3.16439 0.37228,5.54197 0.55842,2.36755 0.18615,-3.17442 0.37229,5.57043 0.55844,2.38598 0.18613,-3.18445 0.37228,5.59845 0.55842,2.40397 0.18615,-3.19448 0.37229,5.62607 0.55844,2.42156 0.18614,-3.20451 0.37228,5.65326 0.55842,2.43872 0.18615,-3.21455 0.37229,5.68001 0.55844,2.45545 0.18614,-3.22458 0.37229,5.70635 0.55842,2.47175 0.18615,-3.23459 0.37229,5.73226 0.55844,2.48763 0.18614,-3.24463 0.37229,5.75772 0.55843,2.50307 0.18614,-3.25467 0.37228,5.78275 0.55843,2.51806 0.18614,-3.26469 0.37229,5.80735 0.55843,2.53263 0.18615,-3.27472 0.37228,5.8315 0.55843,2.54675 0.18614,-3.28475 0.37229,5.8552 0.55843,2.56042 0.18615,-3.29478 0.37228,5.87847 0.55843,2.57365 0.18614,-3.3048 0.37229,5.90127 0.55843,2.58644 0.18615,-3.31483 0.37229,5.92362 0.55843,2.59875 0.18614,-3.32486 0.37229,5.94554 0.55843,2.61064 0.18615,-3.33489 0.37229,5.96697 0.55844,2.62205 0.18613,-3.34492 0.37228,5.98797 0.55842,2.63301 0.18615,-3.35495 0.37229,6.0085 0.55844,2.64352 0.18614,-3.36499 0.37228,6.02856 0.55842,2.65355 0.18615,-3.37503 0.37229,6.04816 0.55844,2.66311 0.18614,-3.38504 0.37229,6.06732 0.55842,2.67224 0.18615,-3.39507 0.37229,6.086 0.55844,2.68088 0.18614,-3.4051 0.37229,6.10419 0.55842,2.68906 0.18615,-3.41513 0.37229,6.12193 0.55844,2.69677 0.18614,-3.42517 0.37229,6.13919 0.55843,2.70399 0.18614,-3.43519 0.37228,6.15599 0.55843,2.71077 0.18614,-3.44523 0.37229,6.17231 0.55843,2.71705 0.18615,-3.45525 0.37228,6.18816 0.55843,2.72287 0.18614,-3.46529 0.37229,6.20352 0.55843,2.72821 0.18615,-3.47532 0.37229,6.21842 0.55843,2.73307 0.18614,-3.48534 0.37229,6.23283 0.55843,2.73747 0.18615,-3.49538 0.37229,6.24677 0.55844,2.74137 0.18613,-3.50541 0.37228,6.26023 0.55842,2.7448 0.18615,-3.51543 0.37229,6.27321 0.55844,2.74775 0.18613,-3.52546 0.37228,6.28572 0.55842,2.75023 0.18615,-3.53549 0.37229,6.29774 0.55844,2.75221 0.18614,-3.54552 0.37228,6.30928 0.55842,2.75373 0.18615,-3.55555 0.37229,6.32034 0.55844,2.75475 0.18614,-3.56558 0.37229,6.33092 0.55842,2.75531 0.18615,-3.57561 0.37229,6.34103 0.55844,2.75538 0.18614,-3.58564 0.37229,6.35063 0.55843,2.75496 0.18614,-3.59566 0.37228,6.35977 0.55843,2.75407 0.18614,-3.6057 0.37229,6.36843 0.55843,2.7527 0.18615,-3.61573 0.37228,6.3766 0.55843,2.75083 0.18614,-3.62575 0.37229,6.3843 0.55843,2.74851 0.18615,-3.63579 0.37228,6.39151 0.55843,2.7457 0.18614,-3.64583 0.37229,6.39824 0.55843,2.74239 0.18615,-3.65586 0.37229,6.4045 0.55843,2.73862 0.18614,-3.66588 0.37229,6.41028 0.55843,2.73436 0.18615,-3.6759 0.37229,6.41559 0.55844,2.72965 0.18613,-3.68594 0.37228,6.4204 0.55842,2.72444 0.18615,-3.69597 0.37229,6.42475 0.55844,2.71875 0.18614,-3.706 0.37228,6.42863 0.55842,2.7126 0.18615,-3.71603 0.37229,6.43203 0.55844,2.70597 0.18614,-3.72606 0.37229,6.43495 0.55842,2.69887 0.18615,-3.73609 0.37229,6.43741 0.55844,2.6913 0.18614,-3.74612 0.37229,6.4394 0.55842,2.68324 0.18615,-3.75614 0.37229,6.44092 0.55844,2.67475 0.18614,-3.76618 0.37229,6.44197 0.55843,2.66577 0.18614,-3.77622 0.37228,6.44255 0.55843,2.65632 0.18614,-3.78624 0.37229,6.44269 0.55843,2.64641 0.18615,-3.79627 0.37228,6.44235 0.55843,2.63604 0.18614,-3.80629 0.37229,6.44151 0.55843,2.62519 0.18615,-3.8163 0.37229,6.44031 0.55843,2.61392 0.18614,-3.82632 0.37229,6.43856 0.55843,2.60224 0.18615,-3.8364 0.37229,6.43635 0.55844,2.58994 0.18613,-3.8464 0.37228,6.4338 0.55842,2.57732 0.18615,-3.85641 0.37229,6.4307 0.55844,2.56429 0.18614,-3.86649 0.37228,6.42713 0.55842,2.55064 0.18615,-3.87649 0.37229,6.42325 0.55844,2.53667 0.18614,-3.8865 0.37229,6.41888 0.55842,2.5223 0.18615,-3.89659 0.37229,6.41395 0.55844,2.50737 0.18614,-3.90659 0.37229,6.40871 0.55842,2.49205 0.18615,-3.91659 0.37229,6.40299 0.55844,2.47632 0.18614,-3.92667 0.37229,6.3968 0.55843,2.46014 0.18614,-3.93668 0.37228,6.39021 0.55843,2.44353 0.18614,-3.94676 0.37229,6.38315 0.55843,2.42647 0.18615,-3.95676 0.37228,6.37577 0.55843,2.40901 0.18614,-3.96677 0.37229,6.3679 0.55843,2.39113 0.18615,-3.97684 0.37229,6.35965 0.55843,2.37281 0.18614,-3.98685 0.37229,6.35099 0.55843,2.35414 0.18615,-3.99685 0.37229,6.34186 0.55844,2.33501 0.18613,-4.00693 0.37228,6.33234 0.55842,2.31548 0.18615,-4.01694 0.37229,6.32241 0.55844,2.29547 0.18613,-4.02694 0.37228,6.31217 0.55842,2.27523 0.18615,-4.03703 0.37229,6.30145 0.55844,2.25443 0.18614,-4.04703 0.37228,6.29034 0.55842,2.2333 0.18615,-4.05703 0.37229,6.27891 0.55844,2.21187 0.18614,-4.06711 0.37229,6.267 0.55842,2.18988 0.18615,-4.07711 0.37229,6.25469 0.55844,2.16757 0.18614,-4.08711 0.37229,6.24215 0.55843,2.14495 0.18614,-4.09712 0.37228,6.22913 0.55843,2.12192 0.18614,-4.10721 0.37229,6.21571 0.55843,2.0985 0.18615,-4.11721 0.37228,6.20197 0.55843,2.07476 0.18614,-4.12729 0.37229,6.18785 0.55843,2.05055 0.18615,-4.1373 0.37228,6.17339 0.55843,2.0261 0.18614,-4.14731 0.37229,6.15854 0.55843,2.00124 0.18615,-4.15731 0.37229,6.14338 0.55843,1.97599 0.18614,-4.1673 0.37229,6.1279 0.55843,1.95051 0.18615,-4.17739 0.37229,6.11203 0.55844,1.92464 0.18613,-4.18748 0.37228,6.09582 0.55842,1.89835 0.18615,-4.1974 0.37229,6.07931 0.55844,1.87184 0.18614,-4.20748 0.37228,6.06248 0.55842,1.845 0.18615,-4.21757 0.37229,6.04525 0.55844,1.81768 0.18614,-4.22748 0.37229,6.02787 0.55842,1.79022 0.18615,-4.23757 0.37229,6.01001 0.55844,1.76243 0.18614,-4.24757 0.37229,5.9919 0.55842,1.73425 0.18615,-4.25765 0.37229,5.97349 0.55844,1.70582 0.18614,-4.26765 0.37229,5.95475 0.55843,1.67709 0.18614,-4.27774 0.37228,5.93577 0.55843,1.64803 0.18614,-4.28775 0.37229,5.91648 0.55843,1.61873 0.18615,-4.29775 0.37228,5.89687 0.55843,1.58912 0.18614,-4.30775 0.37229,5.87702 0.55843,1.55927 0.18615,-4.31784 0.37229,5.85685 0.55843,1.52901 0.18614,-4.32784 0.37229,5.83653 0.55843,1.49869 0.18615,-4.33784 0.37229,5.81589 0.55844,1.46796 0.18613,-4.34784 0.37228,5.79501 0.55842,1.43709 0.18615,-4.35793 0.37229,5.77381 0.55844,1.40588 0.18613,-4.36801 0.37228,5.75237 0.55842,1.37436 0.18615,-4.37793 0.37229,5.73078 0.55844,1.34276 0.18614,-4.38801 0.37228,5.70887 0.55842,1.31085 0.18615,-4.39802 0.37229,5.6868 0.55844,1.2787 0.18614,-4.40811 0.37229,5.66448 0.55842,1.24638 0.18615,-4.41811 0.37229,5.64186 0.55844,1.21375 0.18614,-4.4282 0.37229,5.61915 0.55843,1.18096 0.18614,-4.43819 0.37228,5.59613 0.55843,1.14793 0.18614,-4.44819 0.37229,5.57303 0.55843,1.11483 0.18615,-4.45828 0.37228,5.54961 0.55843,1.08141 0.18614,-4.46829 0.37229,5.52611 0.55843,1.04774 0.18615,-4.47829 0.37228,5.50237 0.55843,1.01408 0.18614,-4.48829 0.37229,5.47847 0.55843,0.98009 0.18615,-4.49836 0.37229,5.45442 0.55843,0.94605 0.18614,-4.50838 0.37229,5.43012 0.55843,0.91166 0.18615,-4.51838 0.37229,5.40575 0.55844,0.87729 0.18613,-4.52839 0.37228,5.38121 0.55842,0.84267 0.18615,-4.53847 0.37229,5.35652 0.55844,0.80797 0.18614,-4.54847 0.37228,5.3316 0.55842,0.77313 0.18615,-4.55855 0.37229,5.30658 0.55844,0.73802 0.18614,-4.56855 0.37229,5.28151 0.55842,0.70294 0.18615,-4.57855 0.37229,5.25626 0.55844,0.6677 0.18614,-4.58865 0.37229,5.23093 0.55842,0.63228 0.18615,-4.59864 0.37229,5.20544 0.55844,0.59679 0.18614,-4.60872 0.37229,5.17988 0.55843,0.56115 0.18614,-4.61865 0.37228,5.15431 0.55843,0.52558 0.18614,-4.62874 0.37229,5.12843 0.55843,0.48969 0.18615,-4.63874 0.37228,5.10262 0.55843,0.45388 0.18614,-4.64882 0.37229,5.07667 0.55843,0.41784 0.18615,-4.65882 0.37229,5.05079 0.55843,0.38188 0.18614,-4.66883 0.37229,5.02475 0.55843,0.34584 0.18615,-4.67892 0.37229,4.99854 0.55844,0.30963 0.18613,-4.68892 0.37228,4.97242 0.55842,0.27342 0.18615,-4.69891 0.37229,4.94615 0.55844,0.23723 0.18613,-4.709 0.37228,4.91987 0.55842,0.20086 0.18615,-4.71901 0.37229,4.89359 0.55844,0.16458 0.18614,-4.72901 0.37228,4.86731 0.55842,0.12822 0.18615,-4.73909 0.37229,4.84095 0.55844,0.0919 0.18614,-4.7491 0.37229,4.81451 0.55842,0.0555 0.18615,-4.75918 0.37229,4.78815 0.55844,0.0191 0.18614,-4.76918 0.37229,4.7618 0.55843,-0.0175 0.18614,-4.77919 0.37228,4.73543 0.55843,-0.054 0.18614,-4.78927 0.37229,4.70907 0.55843,-0.0902 0.18615,-4.79928 0.37228,4.68272 0.55843,-0.12656 0.18614,-4.80927 0.37229,4.65637 0.55843,-0.16291 0.18615,-4.81927 0.37228,4.63009 0.55843,-0.19919 0.18614,-4.82936 0.37229,4.6038 0.55843,-0.23556 0.18615,-4.83936 0.37229,4.57761 0.55843,-0.27177 0.18614,-4.84944 0.37229,4.55141 0.55843,-0.30803 0.18615,-4.85938 0.37229,4.52536 0.55844,-0.34409 0.18613,-4.86945 0.37228,4.49924 0.55842,-0.38029 0.18615,-4.87945 0.37229,4.47329 0.55844,-0.41625 0.18614,-4.88946 0.37228,4.44732 0.55842,-0.45214 0.18615,-4.89955 0.37229,4.42143 0.55844,-0.48811 0.18614,-4.90955 0.37229,4.39572 0.55843,-0.52391 0.18614,-4.91955 0.37229,4.37007 0.55843,-0.55956 0.18615,-4.92963 0.37229,4.34451 0.55844,-0.59512 0.18613,-4.93972 0.37228,4.31902 0.55842,-0.63069 0.18615,-4.94973 0.37229,4.29369 0.55844,-0.66603 0.18613,-4.95972 0.37228,4.26838 0.55842,-0.70135 0.18615,-4.96973 0.37229,4.24336 0.55844,-0.73645 0.18614,-4.9798 0.37228,4.21836 0.55842,-0.77146 0.18615,-4.98981 0.37229,4.19344 0.55844,-0.80638 0.18614,-4.99982 0.37229,4.16874 0.55842,-0.84108"
       style="fill:none;stroke:#ffffff;stroke-width:40;stroke-linecap:round;stroke-linejoin:round;stroke-miterlimit:10;stroke-opacity:1;stroke-dasharray:none;stroke-dashoffset:0"
       inkscape:connector-curvature="0" />
    <path
       style="fill:#009bd6;fill-opacity:1;stroke:#009bd6;stroke-width:20;stroke-linecap:butt;stroke-linejoin:miter;stroke-miterlimit:4;stroke-opacity:1;stroke-dasharray:none"
       d="m 244.79659,270.46692 c 0,160.64095 0,159.00176 0,159.00176"
       id="path3807"
       inkscape:connector-curvature="0" />
    <path
       style="fill:#009bd6;fill-opacity:1;stroke:#009bd6;stroke-width:20;stroke-linecap:butt;stroke-linejoin:miter;stroke-miterlimit:4;stroke-opacity:1;stroke-dasharray:none"
       d="m 492.11883,258.17297 c 0,160.64095 0,159.00176 0,159.00176"
       id="path3807-4"
       inkscape:connector-curvature="0" />
  </g>
</svg>
